<svg xmlns="http://www.w3.org/2000/svg" width="1800" height="1100" viewBox="0 0 1800 1100" role="img" aria-labelledby="title desc">
  <title id="title">Institutional trading desk with market charts</title>
  <desc id="desc">A dark trading desk style background with candlestick charts, order-flow lines, and multiple market panels.</desc>
  <defs>
    <linearGradient id="screen" x1="0" x2="1" y1="0" y2="1">
      <stop stop-color="#101826"/>
      <stop offset="1" stop-color="#071015"/>
    </linearGradient>
    <linearGradient id="accent" x1="0" x2="1">
      <stop stop-color="#00C2FF"/>
      <stop offset="1" stop-color="#00FF94"/>
    </linearGradient>
    <filter id="glow" x="-50%" y="-50%" width="200%" height="200%">
      <feGaussianBlur stdDeviation="8" result="blur"/>
      <feMerge>
        <feMergeNode in="blur"/>
        <feMergeNode in="SourceGraphic"/>
      </feMerge>
    </filter>
  </defs>
  <rect width="1800" height="1100" fill="#080A0F"/>
  <path d="M0 770 C260 650 510 820 760 690 C1010 560 1180 600 1410 510 C1600 436 1705 430 1800 390 L1800 1100 L0 1100 Z" fill="#0F1117"/>
  <g opacity=".16">
    <path d="M0 250H1800M0 430H1800M0 610H1800M0 790H1800M260 0V1100M520 0V1100M780 0V1100M1040 0V1100M1300 0V1100M1560 0V1100" stroke="#7AD8FF"/>
  </g>
  <g transform="translate(170 160)">
    <rect width="560" height="330" rx="24" fill="url(#screen)" stroke="#1E6075"/>
    <path d="M45 248 C105 190 142 230 198 160 C255 88 328 175 392 112 C448 57 488 83 520 42" fill="none" stroke="url(#accent)" stroke-width="5" filter="url(#glow)"/>
    <g stroke="#00FF94" stroke-width="3">
      <path d="M92 92V190"/><rect x="76" y="122" width="32" height="48" fill="#00FF94" opacity=".8"/>
      <path d="M155 112V238"/><rect x="139" y="144" width="32" height="60" fill="none"/>
      <path d="M220 84V200"/><rect x="204" y="102" width="32" height="72" fill="#00FF94" opacity=".8"/>
      <path d="M286 132V265"/><rect x="270" y="160" width="32" height="70" fill="none"/>
      <path d="M352 74V198"/><rect x="336" y="96" width="32" height="54" fill="#00FF94" opacity=".8"/>
      <path d="M420 72V225"/><rect x="404" y="112" width="32" height="78" fill="none"/>
    </g>
  </g>
  <g transform="translate(900 220)">
    <rect width="650" height="390" rx="26" fill="url(#screen)" stroke="#1E6075"/>
    <g fill="none" stroke-width="4">
      <path d="M58 300 L122 234 L178 252 L246 170 L302 194 L382 102 L452 132 L585 62" stroke="#00C2FF" filter="url(#glow)"/>
      <path d="M58 250 L138 270 L210 220 L288 246 L362 178 L450 198 L585 126" stroke="#00FF94" opacity=".75"/>
    </g>
    <g fill="#00C2FF" opacity=".55">
      <rect x="70" y="325" width="34" height="32" rx="4"/>
      <rect x="124" y="290" width="34" height="67" rx="4"/>
      <rect x="178" y="304" width="34" height="53" rx="4"/>
      <rect x="232" y="250" width="34" height="107" rx="4"/>
      <rect x="286" y="276" width="34" height="81" rx="4"/>
      <rect x="340" y="214" width="34" height="143" rx="4"/>
      <rect x="394" y="228" width="34" height="129" rx="4"/>
      <rect x="448" y="176" width="34" height="181" rx="4"/>
    </g>
  </g>
  <g transform="translate(545 640)" opacity=".85">
    <rect width="710" height="230" rx="22" fill="#0F141D" stroke="#1E6075"/>
    <text x="38" y="58" fill="#A0A9C0" font-family="monospace" font-size="24">DMC ORDER FLOW</text>
    <path d="M42 128 H660" stroke="#1E2433" stroke-width="14" stroke-linecap="round"/>
    <path d="M42 128 H430" stroke="url(#accent)" stroke-width="14" stroke-linecap="round" filter="url(#glow)"/>
    <path d="M42 178 H660" stroke="#1E2433" stroke-width="14" stroke-linecap="round"/>
    <path d="M42 178 H548" stroke="#00C2FF" stroke-width="14" stroke-linecap="round"/>
  </g>
</svg>
